<mxfile host="app.diagrams.net" modified="2023-03-11T12:55:55.804Z" agent="5.0 (Windows NT 10.0; Win64; x64) AppleWebKit/537.36 (KHTML, like Gecko) Chrome/110.0.0.0 Safari/537.36" etag="2HbikqFSReL89xBm50Rx" version="21.0.4" type="github">
  <diagram name="Page-1" id="L6VVG-bHco9pqmqwcU4Q">
    <mxGraphModel dx="1877" dy="549" grid="1" gridSize="8" guides="1" tooltips="1" connect="1" arrows="1" fold="1" page="1" pageScale="1" pageWidth="827" pageHeight="1169" math="0" shadow="0">
      <root>
        <mxCell id="0" />
        <mxCell id="1" parent="0" />
        <mxCell id="pfIPBjNjW6CxKwXD6fMm-16" value="" style="edgeStyle=orthogonalEdgeStyle;rounded=0;orthogonalLoop=1;jettySize=auto;html=1;" edge="1" parent="1" source="pfIPBjNjW6CxKwXD6fMm-1" target="pfIPBjNjW6CxKwXD6fMm-15">
          <mxGeometry relative="1" as="geometry" />
        </mxCell>
        <mxCell id="pfIPBjNjW6CxKwXD6fMm-1" value="" style="outlineConnect=0;dashed=0;verticalLabelPosition=bottom;verticalAlign=top;align=center;html=1;shape=mxgraph.aws3.ec2;fillColor=#F58534;gradientColor=none;" vertex="1" parent="1">
          <mxGeometry x="710" y="30" width="76.5" height="93" as="geometry" />
        </mxCell>
        <mxCell id="pfIPBjNjW6CxKwXD6fMm-14" value="" style="edgeStyle=orthogonalEdgeStyle;rounded=0;orthogonalLoop=1;jettySize=auto;html=1;" edge="1" parent="1" source="pfIPBjNjW6CxKwXD6fMm-2" target="pfIPBjNjW6CxKwXD6fMm-4">
          <mxGeometry relative="1" as="geometry" />
        </mxCell>
        <mxCell id="pfIPBjNjW6CxKwXD6fMm-2" value="&lt;b&gt;Ec2&lt;/b&gt;" style="text;html=1;align=center;verticalAlign=middle;resizable=0;points=[];autosize=1;strokeColor=none;fillColor=none;" vertex="1" parent="1">
          <mxGeometry x="738.5" y="71.5" width="40" height="30" as="geometry" />
        </mxCell>
        <mxCell id="pfIPBjNjW6CxKwXD6fMm-5" value="" style="edgeStyle=orthogonalEdgeStyle;rounded=0;orthogonalLoop=1;jettySize=auto;html=1;" edge="1" parent="1" source="pfIPBjNjW6CxKwXD6fMm-3" target="pfIPBjNjW6CxKwXD6fMm-4">
          <mxGeometry relative="1" as="geometry" />
        </mxCell>
        <mxCell id="pfIPBjNjW6CxKwXD6fMm-3" value="" style="sketch=0;aspect=fixed;html=1;points=[];align=center;image;fontSize=12;image=img/lib/mscae/Network_Security_Groups_Classic.svg;" vertex="1" parent="1">
          <mxGeometry x="660" y="51.5" width="37" height="50" as="geometry" />
        </mxCell>
        <mxCell id="pfIPBjNjW6CxKwXD6fMm-4" value="Security Group means Firewall so we cant allow every one to access" style="whiteSpace=wrap;html=1;verticalAlign=top;sketch=0;labelBackgroundColor=default;fontStyle=1" vertex="1" parent="1">
          <mxGeometry x="618.5" y="170" width="120" height="70" as="geometry" />
        </mxCell>
        <mxCell id="pfIPBjNjW6CxKwXD6fMm-11" value="" style="edgeStyle=orthogonalEdgeStyle;rounded=0;orthogonalLoop=1;jettySize=auto;html=1;" edge="1" parent="1" source="pfIPBjNjW6CxKwXD6fMm-9" target="pfIPBjNjW6CxKwXD6fMm-10">
          <mxGeometry relative="1" as="geometry" />
        </mxCell>
        <mxCell id="pfIPBjNjW6CxKwXD6fMm-9" value="" style="points=[[0.13,0.225,0],[0.5,0,0],[0.87,0.225,0],[0.885,0.5,0],[0.985,0.99,0],[0.5,1,0],[0.015,0.99,0],[0.115,0.5,0]];verticalLabelPosition=bottom;sketch=0;html=1;verticalAlign=top;aspect=fixed;align=center;pointerEvents=1;shape=mxgraph.cisco19.laptop_video_client;fillColor=#005073;strokeColor=none;" vertex="1" parent="1">
          <mxGeometry x="200" y="55.25" width="50" height="42.5" as="geometry" />
        </mxCell>
        <mxCell id="pfIPBjNjW6CxKwXD6fMm-10" value="" style="shape=singleArrow;whiteSpace=wrap;html=1;arrowWidth=0.4;arrowSize=0.4;verticalAlign=top;fillColor=#005073;strokeColor=none;sketch=0;" vertex="1" parent="1">
          <mxGeometry x="315" y="46.5" width="335" height="60" as="geometry" />
        </mxCell>
        <mxCell id="pfIPBjNjW6CxKwXD6fMm-12" value="SSH - Default port will be 22&amp;nbsp;&lt;br&gt;UserName&lt;br&gt;Private Key to access" style="text;html=1;align=center;verticalAlign=middle;resizable=0;points=[];autosize=1;strokeColor=none;fillColor=none;" vertex="1" parent="1">
          <mxGeometry x="315" y="101.5" width="180" height="60" as="geometry" />
        </mxCell>
        <mxCell id="pfIPBjNjW6CxKwXD6fMm-13" value="Lets Create a security group in Aws -&amp;gt; Go to Network tab create security group edit inbound rule with all traffic select all tcp and ip will be 00000, by default outbound will allow all&lt;span style=&quot;white-space: pre; font-size: 12px;&quot;&gt;	&lt;/span&gt;&lt;br&gt;Lets create a New instance-&amp;gt; new it as Docker , select ppk beacuse we using putty" style="text;html=1;align=center;verticalAlign=middle;resizable=0;points=[];autosize=1;strokeColor=none;fillColor=none;fontStyle=1;fontSize=12;" vertex="1" parent="1">
          <mxGeometry x="-118" y="261" width="1064" height="48" as="geometry" />
        </mxCell>
        <mxCell id="pfIPBjNjW6CxKwXD6fMm-15" value="Every System as&amp;nbsp;&lt;br&gt;0-65,535 port available" style="whiteSpace=wrap;html=1;verticalAlign=top;fillColor=#F58534;dashed=0;gradientColor=none;" vertex="1" parent="1">
          <mxGeometry x="844.75" y="46.5" width="120" height="60" as="geometry" />
        </mxCell>
        <mxCell id="pfIPBjNjW6CxKwXD6fMm-17" value="&lt;br&gt;&lt;br&gt;" style="rounded=0;whiteSpace=wrap;html=1;" vertex="1" parent="1">
          <mxGeometry x="-8" y="344" width="810" height="544" as="geometry" />
        </mxCell>
        <mxCell id="pfIPBjNjW6CxKwXD6fMm-33" value="" style="edgeStyle=orthogonalEdgeStyle;rounded=0;orthogonalLoop=1;jettySize=auto;html=1;" edge="1" parent="1" source="pfIPBjNjW6CxKwXD6fMm-18" target="pfIPBjNjW6CxKwXD6fMm-32">
          <mxGeometry relative="1" as="geometry" />
        </mxCell>
        <mxCell id="pfIPBjNjW6CxKwXD6fMm-18" value="shell linux server" style="ellipse;whiteSpace=wrap;html=1;" vertex="1" parent="1">
          <mxGeometry x="80" y="416" width="120" height="80" as="geometry" />
        </mxCell>
        <mxCell id="pfIPBjNjW6CxKwXD6fMm-25" value="" style="edgeStyle=orthogonalEdgeStyle;rounded=0;orthogonalLoop=1;jettySize=auto;html=1;" edge="1" parent="1" source="pfIPBjNjW6CxKwXD6fMm-19" target="pfIPBjNjW6CxKwXD6fMm-24">
          <mxGeometry relative="1" as="geometry" />
        </mxCell>
        <mxCell id="pfIPBjNjW6CxKwXD6fMm-26" value="" style="edgeStyle=orthogonalEdgeStyle;rounded=0;orthogonalLoop=1;jettySize=auto;html=1;" edge="1" parent="1" source="pfIPBjNjW6CxKwXD6fMm-19" target="pfIPBjNjW6CxKwXD6fMm-20">
          <mxGeometry relative="1" as="geometry" />
        </mxCell>
        <mxCell id="pfIPBjNjW6CxKwXD6fMm-29" value="" style="edgeStyle=orthogonalEdgeStyle;rounded=0;orthogonalLoop=1;jettySize=auto;html=1;" edge="1" parent="1" source="pfIPBjNjW6CxKwXD6fMm-19" target="pfIPBjNjW6CxKwXD6fMm-13">
          <mxGeometry relative="1" as="geometry" />
        </mxCell>
        <mxCell id="pfIPBjNjW6CxKwXD6fMm-19" value="Docker Engine" style="sketch=0;aspect=fixed;html=1;points=[];align=center;image;fontSize=12;image=img/lib/mscae/Docker.svg;" vertex="1" parent="1">
          <mxGeometry x="380" y="336" width="50" height="41" as="geometry" />
        </mxCell>
        <mxCell id="pfIPBjNjW6CxKwXD6fMm-22" value="" style="edgeStyle=orthogonalEdgeStyle;rounded=0;orthogonalLoop=1;jettySize=auto;html=1;" edge="1" parent="1" source="pfIPBjNjW6CxKwXD6fMm-20" target="pfIPBjNjW6CxKwXD6fMm-21">
          <mxGeometry relative="1" as="geometry" />
        </mxCell>
        <mxCell id="pfIPBjNjW6CxKwXD6fMm-31" value="" style="edgeStyle=orthogonalEdgeStyle;rounded=0;orthogonalLoop=1;jettySize=auto;html=1;" edge="1" parent="1" source="pfIPBjNjW6CxKwXD6fMm-20" target="pfIPBjNjW6CxKwXD6fMm-30">
          <mxGeometry relative="1" as="geometry" />
        </mxCell>
        <mxCell id="pfIPBjNjW6CxKwXD6fMm-20" value="ngnix server or container&lt;br&gt;docker inspect --finds&lt;br&gt;ip address&lt;br&gt;this server also 0-65535 ports" style="rhombus;whiteSpace=wrap;html=1;" vertex="1" parent="1">
          <mxGeometry x="256" y="432" width="280" height="120" as="geometry" />
        </mxCell>
        <mxCell id="pfIPBjNjW6CxKwXD6fMm-21" value="runs default port 80" style="shape=singleArrow;whiteSpace=wrap;html=1;arrowWidth=0.4;arrowSize=0.4;" vertex="1" parent="1">
          <mxGeometry x="680" y="440" width="80" height="82" as="geometry" />
        </mxCell>
        <mxCell id="pfIPBjNjW6CxKwXD6fMm-23" value="" style="curved=1;endArrow=classic;html=1;rounded=0;" edge="1" parent="1" source="pfIPBjNjW6CxKwXD6fMm-18" target="pfIPBjNjW6CxKwXD6fMm-19">
          <mxGeometry width="50" height="50" relative="1" as="geometry">
            <mxPoint x="250" y="432" as="sourcePoint" />
            <mxPoint x="300" y="382" as="targetPoint" />
            <Array as="points">
              <mxPoint x="300" y="432" />
              <mxPoint x="250" y="382" />
            </Array>
          </mxGeometry>
        </mxCell>
        <mxCell id="pfIPBjNjW6CxKwXD6fMm-24" value="Docker&amp;nbsp;&lt;br&gt;HUb" style="ellipse;shape=cloud;whiteSpace=wrap;html=1;verticalAlign=top;sketch=0;labelBackgroundColor=default;" vertex="1" parent="1">
          <mxGeometry x="471" y="336" width="120" height="92.5" as="geometry" />
        </mxCell>
        <mxCell id="pfIPBjNjW6CxKwXD6fMm-30" value="To acces the server ngnix&lt;br&gt;we need to map the host mapping&lt;br&gt;&lt;br&gt;assign one port on host that should be map with container ntg but ngnix server&lt;br&gt;&lt;br&gt;-- docker run -d -p 80:80 ngnix&amp;nbsp;" style="ellipse;whiteSpace=wrap;html=1;" vertex="1" parent="1">
          <mxGeometry x="440" y="602" width="352" height="156" as="geometry" />
        </mxCell>
        <mxCell id="pfIPBjNjW6CxKwXD6fMm-36" value="" style="edgeStyle=orthogonalEdgeStyle;rounded=0;orthogonalLoop=1;jettySize=auto;html=1;" edge="1" parent="1" source="pfIPBjNjW6CxKwXD6fMm-32" target="pfIPBjNjW6CxKwXD6fMm-30">
          <mxGeometry relative="1" as="geometry" />
        </mxCell>
        <mxCell id="pfIPBjNjW6CxKwXD6fMm-32" value="&lt;div&gt;** I want to login into the ngnix server to see what is inside from server&lt;/div&gt;&lt;div&gt;			-- docker exec -it &amp;lt;container-id&amp;gt; bash&amp;nbsp; &amp;nbsp;--&amp;gt; -it means interactive&lt;/div&gt;" style="ellipse;whiteSpace=wrap;html=1;" vertex="1" parent="1">
          <mxGeometry x="72" y="576" width="308" height="208" as="geometry" />
        </mxCell>
        <mxCell id="pfIPBjNjW6CxKwXD6fMm-39" value="" style="edgeStyle=orthogonalEdgeStyle;rounded=0;orthogonalLoop=1;jettySize=auto;html=1;" edge="1" parent="1" source="pfIPBjNjW6CxKwXD6fMm-37" target="pfIPBjNjW6CxKwXD6fMm-38">
          <mxGeometry relative="1" as="geometry" />
        </mxCell>
        <mxCell id="pfIPBjNjW6CxKwXD6fMm-37" value="How to create a our own docker fire&lt;br&gt;" style="rounded=0;whiteSpace=wrap;html=1;" vertex="1" parent="1">
          <mxGeometry x="160" y="936" width="600" height="60" as="geometry" />
        </mxCell>
        <mxCell id="pfIPBjNjW6CxKwXD6fMm-38" value="&lt;b&gt;I am developing a code from laptop then i push to git hub&lt;/b&gt;" style="whiteSpace=wrap;html=1;rounded=0;" vertex="1" parent="1">
          <mxGeometry x="400" y="1109" width="120" height="60" as="geometry" />
        </mxCell>
        <mxCell id="pfIPBjNjW6CxKwXD6fMm-40" value="&lt;b&gt;GITHUB&lt;/b&gt;" style="ellipse;whiteSpace=wrap;html=1;aspect=fixed;" vertex="1" parent="1">
          <mxGeometry x="600" y="1009" width="80" height="80" as="geometry" />
        </mxCell>
        <mxCell id="pfIPBjNjW6CxKwXD6fMm-41" value="&lt;b&gt;EC2 SERVER&lt;/b&gt;" style="shape=cylinder3;whiteSpace=wrap;html=1;boundedLbl=1;backgroundOutline=1;size=15;" vertex="1" parent="1">
          <mxGeometry x="752" y="1089" width="60" height="80" as="geometry" />
        </mxCell>
        <mxCell id="pfIPBjNjW6CxKwXD6fMm-42" value="" style="endArrow=classic;html=1;rounded=0;exitX=1;exitY=0;exitDx=0;exitDy=0;entryX=0.038;entryY=0.37;entryDx=0;entryDy=0;entryPerimeter=0;" edge="1" parent="1" source="pfIPBjNjW6CxKwXD6fMm-38" target="pfIPBjNjW6CxKwXD6fMm-40">
          <mxGeometry width="50" height="50" relative="1" as="geometry">
            <mxPoint x="392" y="1098" as="sourcePoint" />
            <mxPoint x="442" y="1048" as="targetPoint" />
          </mxGeometry>
        </mxCell>
        <mxCell id="pfIPBjNjW6CxKwXD6fMm-43" value="" style="endArrow=classic;html=1;rounded=0;exitX=1;exitY=0.5;exitDx=0;exitDy=0;" edge="1" parent="1" source="pfIPBjNjW6CxKwXD6fMm-40" target="pfIPBjNjW6CxKwXD6fMm-41">
          <mxGeometry width="50" height="50" relative="1" as="geometry">
            <mxPoint x="392" y="1098" as="sourcePoint" />
            <mxPoint x="442" y="1048" as="targetPoint" />
          </mxGeometry>
        </mxCell>
      </root>
    </mxGraphModel>
  </diagram>
</mxfile>
